HIERARCHY
ROOT Hips
{
	OFFSET -10.056300 7.733760 -472.550000
	CHANNELS 6 Xposition Yposition Zposition Zrotation Yrotation Xrotation 
	JOINT Spine
	{
		OFFSET 0.000000 0.000000 0.000000
		CHANNELS 3 Zrotation Yrotation Xrotation
		JOINT Spine1
		{
			OFFSET 19.000000 0.000000 0.000000
			CHANNELS 3 Zrotation Yrotation Xrotation
			JOINT Neck
			{
				OFFSET 22.500000 0.600000 0.000000
				CHANNELS 3 Zrotation Yrotation Xrotation
				JOINT Head
				{
					OFFSET 14.000000 0.030878 0.000000
					CHANNELS 3 Zrotation Yrotation Xrotation
					End Site
					{
						OFFSET 17.000000 0.000000 0.000000
					}
				}
			}
			JOINT LeftShoulder
			{
				OFFSET 19.800000 3.700000 4.300000
				CHANNELS 3 Zrotation Yrotation Xrotation
				JOINT LeftArm
				{
					OFFSET 8.000000 0.000000 0.000000
					CHANNELS 3 Zrotation Yrotation Xrotation
					JOINT LeftForeArm
					{
						OFFSET 15.200000 0.000000 0.000000
						CHANNELS 3 Zrotation Yrotation Xrotation
						JOINT LeftHand
						{
							OFFSET 17.800000 0.000000 0.000000
							CHANNELS 3 Zrotation Yrotation Xrotation
							End Site
							{
								OFFSET 7.200000 0.000000 0.000000
							}
						}
					}
				}
			}
			JOINT RightShoulder
			{
				OFFSET 19.800000 3.700000 -4.300000
				CHANNELS 3 Zrotation Yrotation Xrotation
				JOINT RightArm
				{
					OFFSET 8.000000 0.000000 0.151654
					CHANNELS 3 Zrotation Yrotation Xrotation
					JOINT RightForeArm
					{
						OFFSET 15.200000 0.000000 0.000000
						CHANNELS 3 Zrotation Yrotation Xrotation
						JOINT RightHand
						{
							OFFSET 17.800000 0.000000 0.000000
							CHANNELS 3 Zrotation Yrotation Xrotation
							End Site
							{
								OFFSET 7.200000 0.000000 0.000000
							}
						}
					}
				}
			}
		}
	}
	JOINT LeftUpLeg
	{
		OFFSET 5.984250 -7.666000 4.788790
		CHANNELS 3 Zrotation Yrotation Xrotation
		JOINT LeftLeg
		{
			OFFSET 16.000000 0.000000 0.000000
			CHANNELS 3 Zrotation Yrotation Xrotation
			JOINT LeftFoot
			{
				OFFSET 18.000000 0.000000 0.000000
				CHANNELS 3 Zrotation Yrotation Xrotation
				End Site
				{
					OFFSET 0.000000 -10.800000 0.000000
				}
			}
		}
	}
	JOINT RightUpLeg
	{
		OFFSET 5.984250 -7.665980 -4.788790
		CHANNELS 3 Zrotation Yrotation Xrotation
		JOINT RightLeg
		{
			OFFSET 16.000000 0.000000 0.000000
			CHANNELS 3 Zrotation Yrotation Xrotation
			JOINT RightFoot
			{
				OFFSET 18.000000 0.000000 0.000000
				CHANNELS 3 Zrotation Yrotation Xrotation
				End Site
				{
					OFFSET 0.000000 -10.800000 0.000000
				}
			}
		}
	}
	JOINT Tail
	{
		OFFSET 6.836960 -0.722574 0.000000
		CHANNELS 3 Zrotation Yrotation Xrotation
		JOINT Tail1
		{
			OFFSET 12.000000 0.000000 0.000000
			CHANNELS 3 Zrotation Yrotation Xrotation
			End Site
			{
				OFFSET 12.000000 0.000000 0.000000
			}
		}
	}
}
MOTION
Frames: 9
Frame Time: 0.033333
-8800.295898 -8642.897461 -2322.625000 20.734467 -11.009267 65.759666 -140.400452 -13.073323 3.248462 -123.601883 20.844967 -34.744339 -37.682621 -6.553252 12.071158 -24.222513 1.854242 169.806534 -90.273773 52.361729 119.379990 -31.017942 -45.535709 134.363892 -136.575409 -40.159504 -148.314606 -151.205429 18.407129 -155.110794 173.936295 -0.417175 -178.057892 -64.410805 -22.012802 121.697220 170.236740 -56.212303 -71.766327 141.215881 4.834795 -43.467575 -148.920074 -48.628788 -3.279926 117.459579 -50.241451 53.770008 136.654053 -49.251137 -124.336388 -160.096008 -0.555828 1.322123 113.878593 -17.263552 -106.362511 -18.331493 11.918720 24.312344 -156.179428 -68.102493 25.456783 -1.422022 2.696260 -129.726089 
-18650.398438 -17292.363281 -4608.509766 19.640938 -9.506178 64.951813 -139.883530 -12.990455 3.227338 -124.075584 20.274242 -34.200562 -37.126102 -6.596469 12.013214 -23.027426 3.263176 170.264816 -94.336014 56.817772 113.565758 -27.402756 -44.234585 132.976761 -137.523270 -42.295757 -147.542679 -151.898788 18.572023 -160.356506 172.106598 0.239939 -177.712662 -64.664642 -22.589870 119.854103 161.153244 -51.321465 -62.918106 139.936615 2.137931 -47.439323 -146.697327 -48.062115 -4.053885 108.703781 -50.008076 50.713108 135.233597 -51.569668 -124.618622 -159.698685 0.236031 1.456550 113.347046 -15.554426 -106.791504 -15.293165 10.344164 27.321753 171.920914 -62.231850 53.919838 -2.406043 3.053067 -123.861557 
-32516.828125 -20492.378906 -7176.974609 17.640999 -9.477771 64.776894 -139.503418 -12.921698 3.231473 -124.411125 19.702406 -33.578556 -36.366089 -6.567496 11.595758 -22.379288 4.555962 171.000961 -95.755646 57.295597 107.703255 -23.784996 -42.985691 132.282440 -141.519394 -41.692730 -142.912048 -153.479782 18.433214 -169.998917 169.645920 1.421955 -178.806396 -64.935211 -22.815872 117.357086 146.946289 -44.806221 -46.327267 137.605713 -2.403337 -53.083515 -144.408539 -47.171471 -4.853615 101.809525 -50.525383 46.130566 134.153931 -51.775116 -122.575157 -160.553055 0.545199 0.836031 106.841103 -16.071823 -104.271889 -24.135702 8.817113 26.959103 156.170593 -53.248562 66.697998 -3.643265 2.358168 -118.691948 
-52177.660156 -16458.257812 -10325.832031 15.819118 -10.453225 64.588043 -139.372864 -12.872966 3.266805 -124.521080 19.233219 -32.972450 -35.686588 -6.395691 11.237947 -22.640902 5.695439 172.161118 -92.699890 56.140293 104.047287 -21.114140 -42.075901 132.825562 -148.175964 -37.775013 -134.326797 -155.914902 17.154066 176.503525 167.546494 3.133998 -179.997192 -65.229538 -22.673525 115.113075 136.436234 -37.510468 -31.423363 136.624512 -6.006690 -56.260101 -141.257263 -46.334389 -6.608572 100.080116 -50.942257 41.161106 133.549377 -50.221485 -118.486511 -161.055954 -0.305780 -0.278474 95.668808 -18.413347 -100.146667 -44.033264 7.496999 23.953381 148.737518 -46.945019 71.763374 -4.854012 0.438395 -115.736282 
-74252.546875 -14977.797852 -12638.804688 14.796618 -11.851205 62.999592 -139.495438 -12.862060 3.318974 -124.390388 18.941292 -32.476067 -35.583622 -6.103755 11.293665 -23.472166 6.492442 173.143845 -86.244949 54.357918 101.203987 -20.057619 -41.306709 134.718781 -155.166534 -28.777014 -124.127014 -158.328003 14.468788 161.602097 166.453171 5.267445 179.370682 -66.264366 -22.245266 114.154205 132.155975 -35.479408 -23.974970 137.638565 -5.851104 -53.727333 -137.143448 -45.508762 -9.156693 104.443665 -51.331852 36.701359 133.189835 -47.878246 -113.053658 -160.219315 -2.090146 -2.076841 83.664246 -20.492332 -94.793961 -65.253906 6.087121 20.812359 143.130951 -44.764782 75.226166 -6.228719 -2.519688 -114.639664 
-95337.281250 -18401.074219 -14311.945312 14.810723 -12.598031 61.267742 -139.819199 -12.899893 3.363136 -124.113930 18.855097 -32.165932 -36.219444 -5.885076 11.865364 -23.863821 6.604725 174.127029 -78.278885 54.206497 98.326851 -21.129938 -41.121136 137.275192 -159.169647 -15.226788 -116.913956 -159.917786 11.406144 150.090607 166.377243 7.752676 179.733139 -68.294754 -21.792017 115.009399 136.133224 -41.669067 -27.846851 139.933868 -2.076862 -45.303299 -132.272049 -44.829948 -12.728223 116.037476 -51.625217 31.808397 133.322723 -45.754692 -108.011871 -157.704636 -4.528680 -4.296964 74.642479 -22.122545 -89.489624 -79.046661 5.327698 19.370478 136.961960 -46.666885 79.882477 -7.539029 -5.734541 -115.153229 
-114023.250000 -19543.755859 -16636.414062 15.181469 -11.613435 58.344940 -140.151138 -12.999343 3.374006 -123.814606 18.933056 -31.996159 -37.344372 -5.840680 12.949895 -23.416086 6.629569 175.436096 -70.906227 54.399696 97.615524 -23.819881 -41.437885 140.076141 -160.263489 -3.065772 -115.728905 -161.097565 11.167170 146.428467 166.459183 10.155682 -179.751266 -70.624710 -21.681042 117.324615 148.818008 -53.200073 -42.816650 143.093445 3.182776 -34.716415 -128.210464 -43.982391 -16.628248 129.631454 -51.246029 28.998243 133.749008 -44.982689 -105.296547 -153.783661 -7.180589 -6.431798 67.945526 -23.308403 -83.638649 -88.996109 5.756823 18.447033 131.424896 -49.605778 82.969185 -9.185795 -8.693160 -118.057549 
-126327.531250 -18952.000000 -20226.705078 14.730083 -9.757929 55.280540 -140.380432 -13.137741 3.357685 -123.609222 19.122452 -31.952904 -38.644001 -5.807415 14.363137 -22.359306 6.681769 176.823822 -64.579521 51.011814 97.642998 -26.472534 -41.365570 142.301819 -161.953918 4.038132 -121.860474 -162.388168 14.549207 148.759933 165.706146 11.781386 179.001373 -72.724510 -22.289263 120.440041 160.967346 -63.676846 -59.007427 144.678070 7.362574 -26.416229 -128.125290 -42.790398 -18.208330 140.292297 -50.938972 29.262342 134.873962 -45.073292 -105.747452 -149.305878 -8.827900 -7.937896 61.762508 -23.576530 -76.830200 -95.760780 7.203435 16.403824 128.490295 -51.643593 82.601486 -11.098626 -11.349378 -123.238640 
-139856.375000 -22515.800781 -25006.806641 12.631881 -8.216697 53.441551 -140.437622 -13.273563 3.324748 -123.558372 19.358372 -32.001736 -39.884396 -5.584474 15.630440 -20.684523 6.690111 178.184555 -59.689785 44.219379 96.174019 -28.486326 -40.232445 143.368927 -165.506287 7.113960 -130.434036 -163.408325 17.878754 151.518921 165.016129 12.312908 176.801758 -74.077644 -23.162067 123.164833 149.048538 -72.660057 -50.080864 142.097290 9.374259 -23.519897 -132.993393 -41.985825 -16.275312 144.423920 -51.102524 31.284018 137.093262 -45.337917 -109.185638 -145.049271 -8.936751 -8.962264 57.214661 -22.328436 -71.188049 -96.990112 9.280470 13.605157 127.433662 -55.770638 81.453529 -11.840657 -12.987082 -130.011871 
